<svg width="41" height="49" viewBox="0 0 41 49" fill="none" xmlns="http://www.w3.org/2000/svg">
<path fill-rule="evenodd" clip-rule="evenodd" d="M16.9468 3.05176e-05C18.9222 0.638405 23.3963 2.87223 22.9849 6.58987C22.5605 10.4188 20.8605 15.5718 25.1099 16.503C28.8326 17.3185 29.1725 14.1561 28.9116 12.335C29.8247 13.743 31.2259 17.4041 29.5269 20.7832C27.4024 25.0072 29.3588 26.4715 30.2534 26.4717C31.1483 26.4713 33.6637 25.0631 32.7134 20.7832C34.3533 22.6231 36.0141 26.9538 36.0142 31.8233H35.9751C35.0389 40.9208 27.3432 48.0174 17.9888 48.0176C8.63417 48.0176 0.938636 40.921 0.00244771 31.8233H0.0200258C0.019958 30.181 -0.340213 26.4493 2.07471 22.7549C2.33563 24.3507 3.27138 27.3278 4.92628 26.4717C6.99401 25.4012 3.97609 21.1213 4.92628 17.2354C5.68672 14.1268 7.66652 12.6729 8.56104 12.335C7.90877 14.5128 7.3981 18.8682 10.5737 18.8682C10.2384 17.8915 10.1716 15.2182 12.5864 12.335C15.6051 8.731 16.8912 8.50497 17.7857 5.97073C18.5009 3.94315 17.5245 1.14517 16.9468 3.05176e-05Z" fill="#1D1D1D"/>
<path d="M0.0190372 31.8226H35.9736C35.0376 40.9204 27.3422 48.0169 17.9875 48.0169C8.63279 48.0169 0.937284 40.9204 0.00129871 31.8224H0.0190372V31.8226ZM16.9459 3.05176e-05C18.9214 0.638358 23.3962 2.87162 22.9841 6.58981C22.5597 10.4188 20.8593 15.5716 25.1087 16.5027C28.8317 17.3185 29.1714 14.1559 28.9105 12.3348C29.8237 13.7428 31.2253 17.4039 29.5256 20.7832C27.4011 25.0074 29.3579 26.4717 30.2524 26.4717C31.147 26.4717 33.6628 25.0636 32.7124 20.7832C34.3524 22.6231 36.0127 26.9529 36.0127 31.8224H0.0190372C0.0190256 30.1804 -0.341312 26.4493 2.07393 22.7545C2.33485 24.3503 3.27045 27.3278 4.92536 26.4717C6.99399 25.4016 3.9749 21.121 4.92536 17.2348C5.68573 14.1258 7.66488 12.6727 8.55944 12.3348C7.90717 14.5126 7.39659 18.8682 10.5722 18.8682C10.2368 17.892 10.1697 15.2185 12.585 12.3348C15.6041 8.73011 16.89 8.50472 17.7846 5.97019C18.5002 3.94258 17.5236 1.14525 16.9459 3.05176e-05Z" fill="#1D1D1D"/>
<path fill-rule="evenodd" clip-rule="evenodd" d="M17.0799 13.9563C18.4705 14.4059 21.6186 15.9772 21.3289 18.593C21.0302 21.2876 19.8337 24.9144 22.824 25.5696C25.4431 26.1431 25.6823 23.9176 25.4988 22.636C26.1414 23.6272 27.128 26.2036 25.9324 28.5813C24.4375 31.5538 25.8146 32.5852 26.4441 32.5852C27.0743 32.5844 28.8428 31.5919 28.1746 28.5813C29.3286 29.8764 30.4978 32.9243 30.4978 36.3508H30.4695C29.8104 42.7528 24.3951 47.7471 17.8123 47.7473C11.2294 47.7473 5.81419 42.7529 5.15507 36.3508H5.16777C5.16776 35.1953 4.91366 32.569 6.61308 29.969C6.7968 31.0921 7.45565 33.1871 8.61992 32.5852C10.0755 31.8321 7.95134 28.819 8.61992 26.0842C9.15505 23.8965 10.548 22.8738 11.1775 22.636C10.7186 24.1686 10.3594 27.2332 12.5935 27.2337C12.3576 26.5462 12.3113 24.6648 14.0105 22.636C16.1349 20.0997 17.0402 19.9406 17.6697 18.1575C18.1731 16.7312 17.4865 14.7629 17.0799 13.9563Z" fill="#323232"/>
<path d="M5.16769 36.351H30.4702C29.8115 42.7535 24.396 47.7475 17.8128 47.7475C11.2295 47.7475 5.8139 42.7534 5.15521 36.3509H5.16769V36.351ZM17.0797 13.9563C18.47 14.4055 21.619 15.9772 21.329 18.5938C21.0304 21.2884 19.8337 24.9146 22.8242 25.5698C25.4442 26.1439 25.6832 23.9183 25.4996 22.6367C26.1423 23.6276 27.1286 26.204 25.9325 28.5822C24.4374 31.5549 25.8145 32.5854 26.444 32.5854C27.0736 32.5854 28.844 31.5945 28.1752 28.5822C29.3293 29.877 30.4977 32.924 30.4977 36.3509H5.16769C5.16769 35.1953 4.9141 32.5696 6.6138 29.9695C6.79741 31.0925 7.45583 33.1879 8.62045 32.5854C10.0762 31.8323 7.95158 28.8199 8.62045 26.085C9.15555 23.8972 10.5483 22.8746 11.1779 22.6367C10.7189 24.1693 10.3595 27.2346 12.5944 27.2346C12.3583 26.5475 12.3111 24.6661 14.0108 22.6367C16.1355 20.1 17.0404 19.9414 17.6699 18.1577C18.1735 16.7308 17.4863 14.7622 17.0797 13.9563Z" fill="#323232"/>
<path fill-rule="evenodd" clip-rule="evenodd" d="M17.5337 26.8403C18.3939 27.1183 20.342 28.0906 20.1626 29.7095C19.9777 31.3766 19.2384 33.6205 21.0884 34.0259C22.7087 34.3806 22.8571 33.0034 22.7436 32.2104C23.1412 32.8237 23.751 34.4179 23.0112 35.8891C22.0865 37.728 22.9381 38.3665 23.3276 38.3667C23.7172 38.3666 24.8125 37.7526 24.3989 35.8891C25.1129 36.6903 25.8354 38.5757 25.8354 40.6958H25.8188C25.4111 44.657 22.0599 47.7475 17.9868 47.7475C13.9139 47.7473 10.5634 44.6569 10.1558 40.6958H10.1636C10.1635 39.9807 10.0068 38.356 11.0581 36.7475C11.1717 37.4423 11.5793 38.7382 12.2993 38.3667C13.2 37.9008 11.8857 36.0363 12.2993 34.3442C12.6303 32.9908 13.4927 32.3578 13.8823 32.2104C13.5984 33.1588 13.376 35.0549 14.7583 35.0552C14.6124 34.6298 14.5841 33.4656 15.6352 32.2104C16.9493 30.6416 17.5095 30.5427 17.8989 29.4399C18.2104 28.5574 17.7853 27.3393 17.5337 26.8403Z" fill="#1D1D1D"/>
<path d="M10.1616 40.6965H25.817C25.4094 44.6579 22.0587 47.7479 17.9855 47.7479C13.9122 47.7479 10.5614 44.6579 10.1539 40.6965H10.1616V40.6965ZM17.5319 26.8403C18.3921 27.1183 20.3405 28.0907 20.1611 29.7096C19.9763 31.3769 19.2359 33.6205 21.0862 34.0259C22.7073 34.3811 22.8552 33.0041 22.7416 32.2111C23.1392 32.8242 23.7495 34.4183 23.0094 35.8898C22.0843 37.7291 22.9364 38.3667 23.3259 38.3667C23.7154 38.3666 24.8108 37.7535 24.397 35.8898C25.1111 36.6909 25.834 38.5762 25.834 40.6965H10.1616C10.1616 39.9815 10.0047 38.3569 11.0564 36.7481C11.17 37.443 11.5773 38.7394 12.2979 38.3667C13.1987 37.9007 11.8841 36.0369 12.2979 34.3447C12.629 32.991 13.4908 32.3583 13.8803 32.2111C13.5963 33.1594 13.374 35.0559 14.7567 35.0559C14.6106 34.6309 14.5814 33.4668 15.6331 32.2111C16.9477 30.6416 17.5076 30.5434 17.8971 29.4399C18.2087 28.557 17.7835 27.339 17.5319 26.8403Z" fill="#1D1D1D"/>
<path d="M22.9142 28.8018C22.6262 28.8957 22.3166 28.7384 22.2227 28.4504C22.1852 28.3354 22.1868 28.2113 22.2271 28.0973L23.296 25.0773C23.2977 25.0724 23.2978 25.067 23.2961 25.0621C23.2921 25.0496 23.2787 25.0428 23.2662 25.0468L21.8555 25.5069C21.5972 25.5912 21.3195 25.4501 21.2353 25.1918C21.151 24.9335 21.2921 24.6558 21.5504 24.5716L23.7539 23.8529C24.0704 23.7497 24.4107 23.9226 24.5139 24.2391C24.5539 24.3618 24.5535 24.4942 24.5126 24.6166L23.5441 27.5214C23.5424 27.5263 23.5424 27.5315 23.544 27.5364C23.5481 27.549 23.5616 27.5558 23.5742 27.5517L25.0005 27.0865C25.2588 27.0023 25.5364 27.1434 25.6207 27.4017C25.7049 27.66 25.5638 27.9376 25.3055 28.0219L22.9142 28.8018Z" fill="#FFF279"/>
<path d="M26.7646 24.4387C26.3505 24.4324 26.0198 24.0917 26.0261 23.6776C26.0286 23.5123 26.0856 23.3525 26.1883 23.2229L28.9098 19.7915C28.9143 19.7859 28.9167 19.779 28.9168 19.7718C28.9171 19.7539 28.9028 19.7392 28.8849 19.7389L26.8565 19.7083C26.4851 19.7027 26.1886 19.3971 26.1942 19.0257C26.1998 18.6543 26.5054 18.3578 26.8768 18.3634L30.0451 18.4112C30.5001 18.4181 30.8634 18.7926 30.8566 19.2476C30.8539 19.4241 30.7947 19.595 30.6875 19.7353L28.1468 23.0622C28.1426 23.0678 28.1402 23.0745 28.1401 23.0815C28.1398 23.0996 28.1543 23.1145 28.1723 23.1148L30.2231 23.1457C30.5945 23.1513 30.891 23.4569 30.8854 23.8283C30.8798 24.1996 30.5742 24.4962 30.2028 24.4906L26.7646 24.4387Z" fill="#FFF279"/>
<path d="M32.912 25.9087C32.4165 25.7499 32.1436 25.2195 32.3024 24.724C32.3658 24.5263 32.4927 24.355 32.6635 24.2368L37.1884 21.1066C37.1958 21.1014 37.2013 21.094 37.204 21.0855C37.2109 21.064 37.1991 21.041 37.1776 21.0342L34.7507 20.2563C34.3063 20.1139 34.0616 19.6382 34.204 19.1939C34.3464 18.7496 34.8221 18.5048 35.2664 18.6472L39.0908 19.873C39.6167 20.0415 39.9064 20.6045 39.7379 21.1304L39.7236 21.1751C39.6582 21.379 39.5291 21.5566 39.3552 21.6817L35.0764 24.7591C35.0692 24.7643 35.0639 24.7716 35.0612 24.78C35.0543 24.8016 35.0662 24.8247 35.0878 24.8317L37.5415 25.6181C37.9858 25.7605 38.2306 26.2362 38.0882 26.6805C37.9458 27.1248 37.4701 27.3696 37.0258 27.2272L32.912 25.9087Z" fill="#FFF279"/>
<path d="M12.7529 34.1139C12.3661 33.5228 13.0663 32.8227 13.6574 33.2094C13.8719 33.3498 14.1503 33.3491 14.3636 33.2069C14.9457 32.8188 15.6392 33.5124 15.2511 34.0944C15.1089 34.3077 15.1082 34.5861 15.2486 34.8006C15.6353 35.3917 14.9352 36.0919 14.3441 35.7051C14.1295 35.5648 13.8511 35.5654 13.6378 35.7077C13.0558 36.0957 12.3623 35.4022 12.7503 34.8202C12.8926 34.6069 12.8932 34.3285 12.7529 34.1139Z" fill="url(#paint0_linear_515_2089)"/>
<path d="M20.8568 33.92C20.4735 33.3398 21.1618 32.6515 21.742 33.0348C21.9555 33.1758 22.2327 33.1758 22.4462 33.0348C23.0264 32.6515 23.7147 33.3398 23.3314 33.92C23.1904 34.1335 23.1904 34.4107 23.3314 34.6242C23.7147 35.2044 23.0264 35.8927 22.4462 35.5094C22.2327 35.3683 21.9555 35.3683 21.742 35.5094C21.1618 35.8927 20.4735 35.2044 20.8568 34.6242C20.9979 34.4107 20.9979 34.1335 20.8568 33.92Z" fill="url(#paint1_linear_515_2089)"/>
<defs>
<linearGradient id="paint0_linear_515_2089" x1="11.0406" y1="31.4971" x2="16.9609" y2="37.4174" gradientUnits="userSpaceOnUse">
<stop stop-color="#B4BBFF"/>
<stop offset="1" stop-color="white"/>
</linearGradient>
<linearGradient id="paint1_linear_515_2089" x1="19.134" y1="31.312" x2="25.0543" y2="37.2322" gradientUnits="userSpaceOnUse">
<stop stop-color="#B4BBFF"/>
<stop offset="1" stop-color="white"/>
</linearGradient>
</defs>
</svg>
